<?xml version="1.0" encoding="UTF-8" standalone="no"?>
<svg
   version="1.0"
   width="1024.000000pt"
   height="1024.000000pt"
   viewBox="0 0 1024.000000 1024.000000"
   preserveAspectRatio="xMidYMid meet"
   id="svg4"
   sodipodi:docname="export_iotsploit.svg"
   inkscape:export-filename="export_yffuc.png"
   inkscape:export-xdpi="96"
   inkscape:export-ydpi="96"
   inkscape:version="1.3.2 (091e20e, 2023-11-25)"
   xmlns:inkscape="http://www.inkscape.org/namespaces/inkscape"
   xmlns:sodipodi="http://sodipodi.sourceforge.net/DTD/sodipodi-0.dtd"
   xmlns="http://www.w3.org/2000/svg"
   xmlns:svg="http://www.w3.org/2000/svg">
  <defs
     id="defs4" />
  <sodipodi:namedview
     id="namedview4"
     pagecolor="#ffffff"
     bordercolor="#000000"
     borderopacity="0.25"
     inkscape:showpageshadow="2"
     inkscape:pageopacity="0.0"
     inkscape:pagecheckerboard="0"
     inkscape:deskcolor="#d1d1d1"
     inkscape:document-units="pt"
     inkscape:zoom="0.71695089"
     inkscape:cx="617.19708"
     inkscape:cy="658.34356"
     inkscape:window-width="1920"
     inkscape:window-height="965"
     inkscape:window-x="0"
     inkscape:window-y="25"
     inkscape:window-maximized="1"
     inkscape:current-layer="g4" />
  <g
     transform="translate(0.000000,1024.000000) scale(0.100000,-0.100000)"
     fill="#000000"
     stroke="none"
     id="g4">
    <path
       d="M7057 8829 c4 -13 57 -149 119 -303 62 -155 111 -282 110 -284 -7 -6 -486 -232 -494 -232 -4 0 -24 42 -44 93 -143 358 -217 523 -229 510 -16 -18 -101 -247 -114 -310 -25 -115 -29 -229 -11 -312 47 -222 202 -391 420 -459 65 -20 224 -20 288 1 l47 15 88 -92 c48 -50 207 -215 353 -366 146 -151 284 -294 307 -317 47 -46 91 -63 169 -63 101 0 208 83 235 183 14 52 6 134 -17 178 -9 19 -151 169 -314 334 -411 416 -406 411 -388 433 88 102 136 312 104 462 -34 161 -126 291 -277 390 -78 51 -264 138 -331 155 -24 6 -26 5 -21 -16z m1065 -1771 c16 -11 33 -36 39 -58 16 -52 -10 -106 -64 -133 -33 -17 -44 -18 -77 -8 -54 16 -80 52 -80 110 0 55 20 88 64 106 37 16 80 9 118 -17z"
       id="path1" />
    <path
       d="M3450 8769 c-141 -21 -200 -58 -397 -252 l-162 -160 36 -41 c98 -111 516 -536 528 -536 7 0 72 29 144 65 104 51 143 76 182 117 62 65 126 191 141 278 12 74 2 283 -14 278 -5 -2 -105 -99 -222 -216 l-212 -213 -107 110 c-59 61 -107 115 -107 120 0 5 100 106 222 225 138 134 216 217 207 220 -30 9 -187 13 -239 5z"
       id="path2" />
    <path
       d="M2720 8160 c-36 -40 -66 -75 -68 -79 -1 -4 44 -55 99 -115 l102 -108 -139 -141 c-77 -78 -211 -215 -299 -305 l-160 -163 -90 -2 c-106 -3 -149 -21 -212 -90 -101 -110 -96 -275 11 -382 114 -114 294 -111 402 7 59 63 77 119 71 210 -3 40 -7 80 -9 89 -2 10 106 127 290 313 l293 298 96 -101 c52 -56 100 -101 107 -101 6 0 43 31 80 69 l69 70 -46 53 c-25 29 -155 165 -289 301 l-243 248 -65 -71z m-510 -1086 c37 -22 60 -64 60 -109 0 -46 -41 -91 -92 -100 -104 -20 -168 114 -90 187 44 42 78 48 122 22z"
       id="path3" />
    <path
       d="m 4990,7650 c -106,-10 -259,-54 -365,-104 -116,-55 -230,-142 -345,-263 -185,-196 -280,-411 -311,-706 -15,-141 0,-299 47,-507 93,-410 115,-521 125,-615 19,-174 -11,-286 -97,-365 -52,-48 -106,-64 -209,-64 -140,1 -274,56 -405,166 -234,197 -365,496 -347,792 15,243 95,400 266,524 73,54 101,96 101,157 0,98 -86,161 -194,141 -54,-10 -183,-100 -266,-185 -176,-181 -270,-440 -270,-746 0,-342 151,-705 395,-951 146,-147 289,-235 470,-289 140,-42 137,-38 59,-65 -94,-32 -295,-40 -416,-15 -169,34 -341,130 -481,269 -96,95 -146,161 -195,261 -103,208 -125,384 -78,628 28,142 27,169 -5,223 -47,78 -170,84 -239,13 -86,-91 -150,-425 -121,-641 27,-201 118,-437 238,-615 156,-232 419,-436 672,-522 161,-55 226,-65 416,-65 107,0 210,5 255,13 65,12 200,52 253,75 33,15 16,-11 -58,-92 -134,-143 -271,-233 -453,-296 -154,-53 -289,-73 -607,-91 -325,-18 -521,-90 -679,-249 -226,-226 -237,-561 -25,-776 119,-121 274,-164 375,-105 54,32 84,77 84,126 0,71 -74,139 -151,139 -30,0 -43,7 -72,39 -83,92 -67,216 39,309 90,80 192,102 475,102 103,0 233,5 290,10 221,23 465,87 642,169 304,140 625,459 800,794 l 32,62 3,-55 c 2,-30 -2,-104 -8,-165 -28,-257 -123,-461 -296,-637 -168,-171 -321,-242 -624,-288 -74,-12 -162,-28 -195,-36 -286,-71 -509,-254 -591,-485 -24,-65 -27,-90 -27,-204 -1,-114 2,-137 22,-189 129,-326 431,-461 717,-321 123,60 224,194 224,297 0,56 -36,114 -85,138 -80,39 -143,9 -186,-86 -32,-73 -63,-94 -135,-94 -106,0 -180,85 -178,205 0,80 29,142 96,207 94,92 147,109 473,153 275,37 488,117 695,262 142,100 326,317 410,482 87,173 143,418 159,691 l 6,115 13,-175 c 15,-206 30,-285 82,-441 123,-370 357,-637 701,-798 176,-82 307,-117 561,-151 240,-31 325,-64 411,-160 101,-112 102,-260 4,-347 -47,-41 -111,-52 -172,-29 -38,15 -48,25 -77,83 -28,56 -40,69 -75,85 -105,46 -203,-41 -190,-168 20,-198 267,-352 504,-316 269,41 464,272 466,552 1,175 -61,324 -187,450 -157,158 -319,229 -651,285 -288,49 -443,123 -610,290 -187,188 -278,400 -291,680 -3,66 -7,132 -9,148 -7,45 8,30 42,-41 43,-91 155,-260 233,-352 264,-312 586,-499 1010,-587 112,-23 159,-26 445,-33 358,-9 383,-13 481,-80 80,-53 107,-96 112,-176 6,-83 -1,-106 -43,-153 -27,-30 -44,-40 -80,-44 -93,-13 -138,-60 -138,-145 0,-46 20,-81 67,-116 22,-17 42,-21 109,-21 73,0 90,4 147,32 124,62 209,158 255,288 30,86 34,230 9,316 -49,165 -179,319 -341,402 -147,76 -253,96 -603,117 -358,21 -536,72 -753,216 -90,60 -297,245 -297,265 0,4 19,-1 43,-11 111,-49 339,-90 501,-90 420,0 858,241 1101,607 187,280 265,601 221,901 -19,126 -65,270 -103,320 -53,70 -131,91 -203,54 -72,-36 -91,-121 -55,-247 11,-37 19,-113 22,-201 6,-159 -8,-235 -71,-389 -109,-267 -371,-502 -643,-577 -64,-18 -107,-22 -243,-22 -146,-1 -173,2 -239,22 -40,13 -70,27 -65,31 5,4 56,22 114,40 444,137 740,475 852,972 32,143 32,408 1,544 -39,167 -119,325 -227,443 -59,65 -182,164 -237,192 -108,56 -228,-8 -232,-122 -3,-69 19,-104 102,-170 138,-108 215,-224 245,-370 20,-98 21,-286 1,-382 -35,-169 -142,-370 -262,-490 -157,-159 -365,-250 -528,-231 -186,21 -268,148 -252,393 4,58 37,244 81,462 41,201 80,415 87,475 40,372 -93,737 -361,989 -131,123 -315,226 -481,271 -80,21 -289,48 -339,44 -8,-1 -49,-5 -90,-9 z m 651.6304,-2780.6125 c 162.7504,88.429 182.8237,183.9038 277.4807,454.3714 2.6272,-199.6885 2.2853,-228.9151 -71.9716,-400.1312 -82.8514,-116.5612 -97.5663,-126.7481 -172.1055,-180.7076 -81.174,-55.0475 -83.5808,-58.689 -221.6191,-106.4182 -114.974,-23.0925 -160.7895,-29.5634 -314.4015,-31.3949 -151.0207,-1.8006 -253.8965,26.8624 -312.7737,47.5209 -164.6798,59.9999 -242.7845,106.8986 -316.4807,163.3015 -29.3702,26.6135 -39.5598,55.219 -101.1107,145.4248 -18.6219,40.3814 -24.6629,45.7699 -44.5968,119.437 1.6281,13.2639 -34.286,56.606 -27.8047,262.2681 146.254,-532.67 310.789,-561.043 436.4184,-595.4873 129.4148,-35.4821 276.374,-37.0939 442.764,-19.8517 108.2552,12.3136 345.4,76.1307 426.2012,141.6672 z M 4659,5639 c 46,-11 51,-16 51,-40 0,-15 -12,-42 -27,-60 -78,-92 -215,-73 -275,38 -29,54 -43,119 -33,161 l 6,29 113,-57 c 63,-32 137,-63 165,-71 z m 1201,72 c 0,-142 -81,-239 -192,-229 -69,7 -128,56 -143,118 -6,24 -2,27 55,44 34,10 107,42 163,71 56,29 105,53 110,54 4,0 7,-25 7,-58 z"
       id="path4"
       sodipodi:nodetypes="cccccccccccsscsccccccccccccsccccccccssccscccccccccccccsccsccccccccccccccscccccccccccccccccscsccccccscsccccccccccscccccccccccccccccccccccscccccscccsccccccscccscs" />
  </g>
</svg>
