<svg xmlns="http://www.w3.org/2000/svg" width="1600" height="900" viewBox="0 0 1600 900" role="img" aria-label="IoT generic placeholder">
  <defs>
    <linearGradient id="bg" x1="0" x2="1" y1="0" y2="1">
      <stop offset="0%" stop-color="#0b2a3a"/>
      <stop offset="100%" stop-color="#103e53"/>
    </linearGradient>
    <radialGradient id="glow1" cx="0.25" cy="0.35" r="0.5">
      <stop offset="0%" stop-color="#ff5c35" stop-opacity="0.35"/>
      <stop offset="80%" stop-color="#ff5c35" stop-opacity="0"/>
    </radialGradient>
    <radialGradient id="glow2" cx="0.8" cy="0.4" r="0.6">
      <stop offset="0%" stop-color="#0b6e99" stop-opacity="0.35"/>
      <stop offset="80%" stop-color="#0b6e99" stop-opacity="0"/>
    </radialGradient>
  </defs>
  <rect width="1600" height="900" fill="url(#bg)"/>
  <rect width="1600" height="900" fill="url(#glow1)"/>
  <rect width="1600" height="900" fill="url(#glow2)"/>

  <!-- chip -->
  <g transform="translate(800,450)">
    <rect x="-170" y="-120" width="340" height="240" rx="16" fill="rgba(255,255,255,0.06)" stroke="rgba(255,255,255,0.18)"/>
    <!-- pins -->
    <g fill="#ff5c35">
      <rect x="-190" y="-96" width="12" height="24" rx="2"/>
      <rect x="-190" y="-56" width="12" height="24" rx="2"/>
      <rect x="-190" y="-16" width="12" height="24" rx="2"/>
      <rect x="-190" y="24" width="12" height="24" rx="2"/>
      <rect x="-190" y="64" width="12" height="24" rx="2"/>
      <rect x="178" y="-96" width="12" height="24" rx="2"/>
      <rect x="178" y="-56" width="12" height="24" rx="2"/>
      <rect x="178" y="-16" width="12" height="24" rx="2"/>
      <rect x="178" y="24" width="12" height="24" rx="2"/>
      <rect x="178" y="64" width="12" height="24" rx="2"/>
    </g>
    <!-- traces -->
    <g stroke="rgba(255,255,255,0.28)" stroke-width="2" fill="none">
      <path d="M-60,-60 h-120"/>
      <circle cx="-180" cy="-60" r="4" fill="#0b6e99"/>
      <path d="M60,-20 h220"/>
      <circle cx="280" cy="-20" r="4" fill="#0b6e99"/>
      <path d="M-40,40 h-200"/>
      <circle cx="-240" cy="40" r="4" fill="#0b6e99"/>
    </g>
  </g>

  <!-- subtle grid -->
  <g stroke="rgba(255,255,255,0.06)" stroke-width="1">
    <path d="M0 150 H1600M0 300 H1600M0 450 H1600M0 600 H1600M0 750 H1600"/>
    <path d="M200 0 V900M400 0 V900M600 0 V900M800 0 V900M1000 0 V900M1200 0 V900M1400 0 V900"/>
  </g>
</svg>

